<svg width="41" height="35" viewBox="0 0 41 35" fill="none" xmlns="http://www.w3.org/2000/svg">
<g clip-path="url(#clip0_68_4648)" filter="url(#filter0_d_68_4648)">
<path d="M8.19995 8.2002H32.2V26.2002H8.19995V8.2002Z" fill="#00008B"/>
<path d="M9.6062 8.2002L14.1812 11.5939L18.7375 8.2002H20.2V9.3627L15.7 12.7189L20.2 16.0564V17.2002H18.7L14.2 13.8439L9.7187 17.2002H8.19995V16.0752L12.6812 12.7377L8.19995 9.4002V8.2002H9.6062Z" fill="white"/>
<path d="M16.15 13.4689L20.2 16.4502V17.2002L15.1187 13.4689H16.15ZM12.7 13.8439L12.8125 14.5002L9.21245 17.2002H8.19995L12.7 13.8439ZM20.2 8.2002V8.25645L15.5312 11.7814L15.5687 10.9564L19.2625 8.2002H20.2ZM8.19995 8.2002L12.6812 11.5002H11.5562L8.19995 8.9877V8.2002Z" fill="#FF0000"/>
<path d="M12.7187 8.2002V17.2002H15.7187V8.2002H12.7187ZM8.19995 11.2002V14.2002H20.2V11.2002H8.19995Z" fill="white"/>
<path d="M8.19995 11.8189V13.6189H20.2V11.8189H8.19995ZM13.3187 8.2002V17.2002H15.1187V8.2002H13.3187Z" fill="#FF0000"/>
<path d="M27.9625 23.0759L27.1937 23.1734L27.2762 23.9421L26.7212 23.4021L26.17 23.9459L26.245 23.1771L25.4762 23.0871L26.125 22.6671L25.7162 22.0109L26.4512 22.2546L26.71 21.5234L26.9762 22.2509L27.7075 21.9996L27.3062 22.6596L27.9625 23.0759ZM27.8237 18.6809L27.925 18.1934L27.5575 17.8559L28.0525 17.7996L28.2587 17.3459L28.465 17.7996L28.96 17.8559L28.5925 18.1934L28.6937 18.6809L28.2587 18.4334L27.8237 18.6809ZM23.92 16.4309L23.1587 16.5134L23.2262 17.2746L22.6862 16.7309L22.1312 17.2596L22.2212 16.4984L21.4637 16.3971L22.1125 15.9921L21.7187 15.3359L22.4425 15.5909L22.7125 14.8746L22.9637 15.5984L23.6912 15.3621L23.2825 16.0109L23.9237 16.4309H23.92ZM31.5625 15.2009L30.7787 15.3021L30.865 16.0859L30.2987 15.5346L29.7362 16.0896L29.815 15.3021L29.0312 15.2121L29.695 14.7809L29.2787 14.1096L30.0287 14.3609L30.2912 13.6184L30.5612 14.3609L31.3075 14.1021L30.895 14.7771L31.5625 15.2009ZM27.9587 12.0696L27.1825 12.1559L27.2537 12.9359L26.7025 12.3809L26.1362 12.9209L26.2262 12.1446L25.45 12.0396L26.1137 11.6271L25.7125 10.9559L26.4512 11.2146L26.725 10.4834L26.98 11.2221L27.7225 10.9784L27.3062 11.6384L27.9587 12.0696ZM16.975 22.6634L15.2575 22.8659L15.43 24.5871L14.2 23.3721L12.9625 24.5796L13.1462 22.8584L11.4287 22.6409L12.8875 21.7109L11.9875 20.2334L13.6225 20.7959L14.215 19.1684L14.7962 20.7996L16.435 20.2484L15.5237 21.7184L16.9787 22.6596L16.975 22.6634Z" fill="white"/>
<g clip-path="url(#clip1_68_4648)" filter="url(#filter1_d_68_4648)">
<path d="M8.19995 8.2002H32.2V26.2002H8.19995V8.2002Z" fill="white"/>
<path d="M8.19995 8.2002H16.1987V26.2002H8.19995V8.2002Z" fill="#000091"/>
<path d="M24.2014 8.2002H32.2002V26.2002H24.2014V8.2002Z" fill="#E1000F"/>
<g clip-path="url(#clip2_68_4648)" filter="url(#filter2_d_68_4648)">
<path d="M8.19995 8.2002H32.2V26.2002H8.19995V8.2002Z" fill="white"/>
<path d="M8.19995 14.7437H32.2V19.6562H8.19995V14.7437Z" fill="#002F6C"/>
<path d="M14.7813 8.2002H19.6901V26.2002H14.7776L14.7813 8.2002Z" fill="#002F6C"/>
</g>
</g>
<g clip-path="url(#clip3_68_4648)" filter="url(#filter3_d_68_4648)">
<path d="M13.8287 8.2002H26.5674V26.2002H13.825L13.8287 8.2002Z" fill="white"/>
<path d="M7.46118 8.2002H13.8287V26.2002H7.46118V8.2002ZM26.5674 8.2002H32.9349V26.2002H26.5712L26.5674 8.2002ZM15.7374 16.9002L15.2387 17.0652L17.5412 19.0902C17.7174 19.6039 17.4812 19.7577 17.3312 20.0277L19.8287 19.7127L19.7687 22.2252L20.2899 22.2139L20.1737 19.7164L22.6749 20.0164C22.5212 19.6902 22.3824 19.5177 22.5249 18.9964L24.8237 17.0839L24.4224 16.9339C24.0924 16.6789 24.5649 15.7114 24.6324 15.1002C24.6324 15.1002 23.2937 15.5614 23.2074 15.3177L22.8624 14.6614L21.6399 16.0039C21.5087 16.0377 21.4524 15.9852 21.4187 15.8727L21.9812 13.0677L21.0887 13.5702C21.0137 13.6039 20.9387 13.5739 20.8937 13.4877L20.0312 11.7627L19.1462 13.5552C19.0787 13.6189 19.0112 13.6264 18.9587 13.5814L18.0999 13.1052L18.6137 15.8839C18.5724 15.9964 18.4749 16.0264 18.3624 15.9664L17.1924 14.6427C17.0424 14.8864 16.9374 15.2839 16.7349 15.3739C16.5324 15.4602 15.8537 15.2052 15.3999 15.1114C15.5574 15.6664 16.0374 16.5964 15.7374 16.9002Z" fill="#D52B1E"/>
</g>
</g>
<defs>
<filter id="filter0_d_68_4648" x="0.199951" y="0.200195" width="40" height="34" filterUnits="userSpaceOnUse" color-interpolation-filters="sRGB">
<feFlood flood-opacity="0" result="BackgroundImageFix"/>
<feColorMatrix in="SourceAlpha" type="matrix" values="0 0 0 0 0 0 0 0 0 0 0 0 0 0 0 0 0 0 127 0" result="hardAlpha"/>
<feOffset/>
<feGaussianBlur stdDeviation="4"/>
<feComposite in2="hardAlpha" operator="out"/>
<feColorMatrix type="matrix" values="0 0 0 0 0.458824 0 0 0 0 0.458824 0 0 0 0 0.458824 0 0 0 0.2 0"/>
<feBlend mode="normal" in2="BackgroundImageFix" result="effect1_dropShadow_68_4648"/>
<feBlend mode="normal" in="SourceGraphic" in2="effect1_dropShadow_68_4648" result="shape"/>
</filter>
<filter id="filter1_d_68_4648" x="0.199951" y="0.200195" width="40" height="34" filterUnits="userSpaceOnUse" color-interpolation-filters="sRGB">
<feFlood flood-opacity="0" result="BackgroundImageFix"/>
<feColorMatrix in="SourceAlpha" type="matrix" values="0 0 0 0 0 0 0 0 0 0 0 0 0 0 0 0 0 0 127 0" result="hardAlpha"/>
<feOffset/>
<feGaussianBlur stdDeviation="4"/>
<feComposite in2="hardAlpha" operator="out"/>
<feColorMatrix type="matrix" values="0 0 0 0 0.458824 0 0 0 0 0.458824 0 0 0 0 0.458824 0 0 0 0.15 0"/>
<feBlend mode="normal" in2="BackgroundImageFix" result="effect1_dropShadow_68_4648"/>
<feBlend mode="normal" in="SourceGraphic" in2="effect1_dropShadow_68_4648" result="shape"/>
</filter>
<filter id="filter2_d_68_4648" x="0.199951" y="0.200195" width="40" height="34" filterUnits="userSpaceOnUse" color-interpolation-filters="sRGB">
<feFlood flood-opacity="0" result="BackgroundImageFix"/>
<feColorMatrix in="SourceAlpha" type="matrix" values="0 0 0 0 0 0 0 0 0 0 0 0 0 0 0 0 0 0 127 0" result="hardAlpha"/>
<feOffset/>
<feGaussianBlur stdDeviation="4"/>
<feComposite in2="hardAlpha" operator="out"/>
<feColorMatrix type="matrix" values="0 0 0 0 0.458824 0 0 0 0 0.458824 0 0 0 0 0.458824 0 0 0 0.15 0"/>
<feBlend mode="normal" in2="BackgroundImageFix" result="effect1_dropShadow_68_4648"/>
<feBlend mode="normal" in="SourceGraphic" in2="effect1_dropShadow_68_4648" result="shape"/>
</filter>
<filter id="filter3_d_68_4648" x="0.199951" y="0.200195" width="40" height="34" filterUnits="userSpaceOnUse" color-interpolation-filters="sRGB">
<feFlood flood-opacity="0" result="BackgroundImageFix"/>
<feColorMatrix in="SourceAlpha" type="matrix" values="0 0 0 0 0 0 0 0 0 0 0 0 0 0 0 0 0 0 127 0" result="hardAlpha"/>
<feOffset/>
<feGaussianBlur stdDeviation="4"/>
<feComposite in2="hardAlpha" operator="out"/>
<feColorMatrix type="matrix" values="0 0 0 0 0.458824 0 0 0 0 0.458824 0 0 0 0 0.458824 0 0 0 0.15 0"/>
<feBlend mode="normal" in2="BackgroundImageFix" result="effect1_dropShadow_68_4648"/>
<feBlend mode="normal" in="SourceGraphic" in2="effect1_dropShadow_68_4648" result="shape"/>
</filter>
<clipPath id="clip0_68_4648">
<rect width="24" height="18" fill="white" transform="translate(8.19995 8.2002)"/>
</clipPath>
<clipPath id="clip1_68_4648">
<rect width="24" height="18" fill="white" transform="translate(8.19995 8.2002)"/>
</clipPath>
<clipPath id="clip2_68_4648">
<rect width="24" height="18" fill="white" transform="translate(8.19995 8.2002)"/>
</clipPath>
<clipPath id="clip3_68_4648">
<rect width="24" height="18" fill="white" transform="translate(8.19995 8.2002)"/>
</clipPath>
</defs>
</svg>
