<svg width="99" height="37" viewBox="0 0 99 37" fill="none" xmlns="http://www.w3.org/2000/svg">
<rect width="99" height="36.7299" fill="white"/>
<path fill-rule="evenodd" clip-rule="evenodd" d="M33.2183 8.94622C32.1489 7.5165 30.8127 6.298 29.2834 5.3646C28.9388 7.79515 29.5251 9.82431 30.782 10.1611C31.5612 10.3699 32.4425 9.88647 33.2183 8.94622ZM8.11017 19.088C8.03746 18.51 8 17.921 8 17.3232C8 12.5988 10.3402 8.42087 13.9246 5.88552C14.0389 5.94045 14.128 6.04453 14.1685 6.17145C14.9363 8.58159 17.1494 10.3231 19.7598 10.3231C19.7819 10.3231 19.8039 10.323 19.8259 10.3228C20.7664 10.3122 21.7717 10.6627 22.0267 11.5681C22.1922 12.1556 22.2801 12.7704 22.2801 13.4033C22.2801 14.9227 21.7737 16.3374 20.9023 17.5224C20.55 18.0014 19.9345 18.1633 19.3399 18.1633C17.8708 18.1633 16.6799 18.7901 16.6799 19.5633C16.6799 20.3365 17.8708 20.9633 19.3399 20.9633C19.7031 20.9633 20.0493 20.9249 20.3647 20.8556C20.6493 20.793 20.9415 20.7494 21.2296 20.7935C23.1267 21.0841 24.6534 21.9242 25.3023 23.0117C26.1525 24.1085 25.8221 26.6182 24.4192 29.048C23.9091 29.9315 23.319 30.6975 22.7084 31.3056C22.4737 31.3173 22.2375 31.3232 22 31.3232C20.6929 31.3232 19.4276 31.1441 18.2274 30.809C18.219 30.6362 18.2205 30.4553 18.2318 30.2676C18.3127 28.9227 17.4908 27.54 16.2584 26.9954C14.8151 26.3576 13.8798 25.3355 13.8798 24.1833C13.8798 24.016 13.8995 23.8514 13.9377 23.6903C14.0165 23.3575 14.2756 23.121 14.5306 22.8882C14.5697 22.8526 14.6086 22.8171 14.6467 22.7813C14.8735 22.5687 14.9999 22.3324 14.9999 22.0834C14.9999 21.1556 13.2448 20.4034 11.0799 20.4034C11.0386 20.4034 10.9975 20.4037 10.9565 20.4043C10.6888 20.4078 10.4199 20.3749 10.172 20.2738C9.41924 19.967 8.72557 19.566 8.11017 19.088ZM35.4476 13.4164C35.8072 14.6564 36 15.9673 36 17.3232C36 20.2558 35.0983 22.9778 33.557 25.2271C33.5447 25.206 33.5323 25.1848 33.52 25.1635C32.9278 24.1378 32.5194 23.0822 32.2926 22.0718C29.5494 21.4298 27.6 19.7965 27.6 17.883C27.6 15.4088 30.8594 13.403 34.88 13.403C35.071 13.403 35.2603 13.4076 35.4476 13.4164Z" fill="url(#paint0_linear_99_8319)"/>
<path d="M88.113 25.3647V15.5197L84.3054 22.8507H82.6946L78.887 15.5197V25.3647H76V10.3647H79.0962L83.4895 18.9L87.9247 10.3647H91V25.3647H88.113Z" fill="#333333"/>
<path d="M44 25.3647V10.3647H50.5645C51.2474 10.3647 51.8746 10.5056 52.446 10.7873C53.0314 11.069 53.5331 11.4493 53.9512 11.9281C54.3833 12.407 54.7108 12.9422 54.9338 13.5338C55.1707 14.1253 55.2892 14.7309 55.2892 15.3507C55.2892 15.9845 55.1777 16.5971 54.9547 17.1887C54.7456 17.7662 54.439 18.2732 54.0348 18.7098C53.6307 19.1464 53.1568 19.4845 52.6132 19.7239L56 25.3647H52.8223L49.77 20.3366H46.885V25.3647H44ZM46.885 17.7802H50.5017C50.8641 17.7802 51.1847 17.6746 51.4634 17.4633C51.7422 17.238 51.9652 16.9422 52.1324 16.576C52.2997 16.2098 52.3833 15.8014 52.3833 15.3507C52.3833 14.8718 52.2857 14.4563 52.0906 14.1042C51.8955 13.738 51.6446 13.4493 51.338 13.238C51.0453 13.0267 50.7247 12.9211 50.3763 12.9211H46.885V17.7802Z" fill="#333333"/>
<path d="M67.3156 11.7345L69.1754 13.5943L66.9378 18.1857L71.5437 15.9626L73.3889 17.8079L66.9233 20.7283L64.9473 25.3197L75.8735 20.2343L78.0529 22.4138L63.6105 28.6034L61.8815 26.8744L64.3951 20.7283L58.2637 23.2565L56.5346 21.5275L62.7388 7.09961L64.8891 9.24999L59.8183 20.1908L64.3806 18.1857L67.3156 11.7345Z" fill="url(#paint1_linear_99_8319)"/>
<path d="M55.8801 7.75887C56.2706 7.36834 56.9037 7.36834 57.2943 7.75886L58.3409 8.80547L53.982 13.1643L52.9354 12.1177C52.5449 11.7272 52.5449 11.094 52.9354 10.7035L55.8801 7.75887Z" fill="url(#paint2_linear_99_8319)"/>
<defs>
<linearGradient id="paint0_linear_99_8319" x1="17.66" y1="12.5047" x2="30.12" y2="28.8847" gradientUnits="userSpaceOnUse">
<stop stop-color="#3EE187"/>
<stop offset="1" stop-color="#6DBBFF"/>
</linearGradient>
<linearGradient id="paint1_linear_99_8319" x1="65.1847" y1="15.2204" x2="61.6639" y2="27.4425" gradientUnits="userSpaceOnUse">
<stop stop-color="#3EE187"/>
<stop offset="1" stop-color="#6DBBFF"/>
</linearGradient>
<linearGradient id="paint2_linear_99_8319" x1="55.9933" y1="8.85571" x2="56.868" y2="11.4137" gradientUnits="userSpaceOnUse">
<stop stop-color="#3EE187"/>
<stop offset="1" stop-color="#6DBBFF"/>
</linearGradient>
</defs>
</svg>
