<svg width="44" height="44" viewBox="0 0 44 44" fill="none" xmlns="http://www.w3.org/2000/svg">
<g clip-path="url(#clip0_112_670)">
<rect width="44" height="44" rx="22" fill="#F2F2F2"/>
<circle cx="22.0001" cy="16.9235" r="8.46154" fill="#BDBDBD"/>
<path d="M38.9231 44.0002C38.9231 41.7779 38.4853 39.5772 37.6349 37.524C36.7844 35.4708 35.5379 33.6053 33.9664 32.0338C32.3949 30.4623 30.5294 29.2158 28.4762 28.3653C26.423 27.5149 24.2223 27.0771 22 27.0771C19.7776 27.0771 17.577 27.5149 15.5238 28.3653C13.4706 29.2158 11.605 30.4623 10.0336 32.0338C8.46211 33.6053 7.21556 35.4708 6.3651 37.524C5.51463 39.5772 5.0769 41.7779 5.0769 44.0002L22 44.0002H38.9231Z" fill="#BDBDBD"/>
</g>
<rect x="0.423077" y="0.423077" width="43.1538" height="43.1538" rx="21.5769" stroke="#E0E0E0" stroke-width="0.846154"/>
<defs>
<clipPath id="clip0_112_670">
<rect width="44" height="44" rx="22" fill="white"/>
</clipPath>
</defs>
</svg>
