<svg width="336" height="72" viewBox="0 0 336 72" fill="none" xmlns="http://www.w3.org/2000/svg">
<g filter="url(#filter0_d_50_366)">
<rect x="8" y="8" width="320" height="56" rx="12" fill="white"/>
<rect x="8.5" y="8.5" width="319" height="55" rx="11.5" stroke="#3EE187"/>
<g clip-path="url(#clip0_50_366)">
<path d="M88.741 27.0119C88.7114 26.8488 88.6183 26.7042 88.482 26.6097C88.3458 26.5153 88.1776 26.4789 88.0145 26.5084C87.8514 26.538 87.7067 26.6312 87.6123 26.7674C87.5179 26.9037 87.4814 27.0718 87.511 27.2349C87.5237 27.3039 87.5377 27.3724 87.553 27.4404C85.692 28.2169 84.648 29.2434 84.089 30.3624C83.5405 31.4614 83.503 32.5774 83.5005 33.4104L82.342 34.8999C82.2055 35.0756 82.1065 35.2774 82.0511 35.4929C81.9958 35.7083 81.9853 35.9329 82.0202 36.1526C82.0552 36.3723 82.1349 36.5825 82.2544 36.7701C82.3739 36.9578 82.5307 37.1189 82.715 37.2434L92.249 43.6909C93.5103 44.5438 94.998 44.9995 96.5205 44.9994H98.813C99.2514 44.9994 99.6851 44.9089 100.087 44.7336C100.489 44.5583 100.85 44.302 101.148 43.9807C101.447 43.6593 101.675 43.2799 101.82 42.8661C101.965 42.4524 102.023 42.0131 101.99 41.5759C101.863 39.9094 100.452 38.7384 99.1295 38.1629C98.64 37.9504 98.2265 37.6589 97.963 37.2694L94.8715 31.9934L94.9815 31.9754C95.1449 31.9474 95.2904 31.8556 95.3861 31.7202C95.4818 31.5849 95.5198 31.4171 95.4917 31.2537C95.4637 31.0903 95.3719 30.9448 95.2365 30.8491C95.1012 30.7534 94.9334 30.7154 94.77 30.7434C94.4603 30.7961 94.1475 30.8204 93.8315 30.8164C91.66 30.7884 89.5615 29.4639 88.9 27.6064C88.831 27.4129 88.7778 27.2141 88.741 27.0119ZM86.63 29.3449L88.331 32.2909C88.4968 32.578 88.5417 32.9192 88.4559 33.2394C88.3701 33.5597 88.1606 33.8327 87.8735 33.9984L86.3185 34.8959L84.75 33.8379V33.6249C84.75 32.7539 84.7585 31.8204 85.2075 30.9209C85.4695 30.3964 85.899 29.8514 86.6295 29.3449M87.6275 35.7789L91.284 33.6674C91.5711 33.5017 91.9123 33.4568 92.2325 33.5426C92.5527 33.6284 92.8257 33.8379 92.9915 34.1249L93.8335 35.5829C93.9155 35.7251 93.9688 35.8821 93.9902 36.0448C94.0116 36.2076 94.0007 36.373 93.9582 36.5316C93.9156 36.6901 93.8423 36.8387 93.7423 36.969C93.6423 37.0992 93.5177 37.2084 93.3755 37.2904L91.4855 38.3819L87.6275 35.7789ZM96.5495 42.2484H100.7C100.601 42.6751 100.361 43.0558 100.018 43.3284C99.6755 43.601 99.2504 43.7494 98.8125 43.7494H96.52C95.2471 43.7495 94.0034 43.3684 92.949 42.6554L83.415 36.2079C83.3724 36.1792 83.3362 36.142 83.3087 36.0987C83.2811 36.0554 83.2627 36.0068 83.2546 35.9561C83.2465 35.9054 83.249 35.8535 83.2618 35.8038C83.2746 35.7541 83.2975 35.7075 83.329 35.6669L83.982 34.8274L93.683 41.3724C94.5299 41.9436 95.5281 42.2486 96.5495 42.2484Z" fill="#3EE187"/>
</g>
<path d="M126.861 29.092H129.005V43.956H126.861V29.092ZM121.021 30.132C123.261 30.132 124.909 32.18 124.909 35.412C124.909 38.676 123.261 40.724 121.021 40.724C118.781 40.724 117.133 38.676 117.133 35.412C117.133 32.18 118.781 30.132 121.021 30.132ZM121.021 32.068C119.917 32.068 119.165 33.236 119.165 35.412C119.165 37.62 119.917 38.804 121.021 38.804C122.125 38.804 122.861 37.62 122.861 35.412C122.861 33.236 122.125 32.068 121.021 32.068ZM135.499 30.132C137.707 30.132 139.323 32.18 139.323 35.412C139.323 38.676 137.707 40.724 135.499 40.724C133.275 40.724 131.675 38.676 131.675 35.412C131.675 32.18 133.275 30.132 135.499 30.132ZM135.499 32.068C134.427 32.068 133.707 33.236 133.707 35.412C133.707 37.62 134.427 38.804 135.499 38.804C136.587 38.804 137.291 37.62 137.291 35.412C137.291 33.236 136.587 32.068 135.499 32.068ZM141.755 29.092H143.867V43.956H141.755V29.092ZM138.699 34.436H142.651V36.148H138.699V34.436ZM146.682 34.484H147.914C151.002 34.484 152.682 34.388 154.554 34.004L154.778 35.652C152.874 36.084 151.082 36.148 147.914 36.148H146.682V34.484ZM146.682 29.876H153.306V31.54H148.794V35.412H146.682V29.876ZM155.706 29.108H157.834V36.468H155.706V29.108ZM157.242 31.892H159.802V33.62H157.242V31.892ZM148.042 37.076H157.834V41.172H150.186V42.948H148.074V39.604H155.738V38.74H148.042V37.076ZM148.074 42.084H158.266V43.764H148.074V42.084ZM171.113 29.092H173.241V43.956H171.113V29.092ZM161.705 38.772H163.017C165.641 38.772 167.737 38.676 170.089 38.276L170.297 39.988C167.897 40.42 165.721 40.5 163.017 40.5H161.705V38.772ZM161.689 30.356H168.681V36.084H163.865V39.412H161.705V34.404H166.505V32.052H161.689V30.356ZM185.848 29.108H187.992V43.924H185.848V29.108ZM181.48 30.644H183.592C183.592 35.172 182.056 38.884 176.792 41.428L175.688 39.732C179.944 37.684 181.48 34.996 181.48 31.028V30.644ZM176.472 30.644H182.488V32.324H176.472V30.644ZM194.751 30.436H201.871V40.404H194.751V30.436ZM199.791 32.1H196.847V38.724H199.791V32.1ZM204.175 29.092H206.319V43.956H204.175V29.092ZM216.574 31.028H219.518V32.74H216.574V31.028ZM216.574 33.892H219.518V35.588H216.574V33.892ZM212.142 29.956H213.854V31.652C213.854 34.724 212.606 37.38 209.806 38.42L208.67 36.756C211.118 35.892 212.142 33.812 212.142 31.652V29.956ZM212.59 29.956H214.302V31.652C214.302 33.684 215.262 35.716 217.598 36.596L216.43 38.244C213.806 37.204 212.59 34.596 212.59 31.652V29.956ZM219.022 29.124H221.15V40.084H219.022V29.124ZM211.342 41.972H221.47V43.668H211.342V41.972ZM211.342 39.076H213.486V43.044H211.342V39.076ZM236.662 29.108H238.79V37.748H236.662V29.108ZM238.198 32.468H240.758V34.212H238.198V32.468ZM227.558 29.972H229.67V31.844H232.566V29.972H234.678V37.028H227.558V29.972ZM229.67 33.476V35.364H232.566V33.476H229.67ZM229.158 38.404H238.87V40.084H231.286V43.268H229.158V38.404ZM229.158 42.068H239.158V43.748H229.158V42.068ZM252.069 29.108H254.213V43.924H252.069V29.108ZM247.701 30.644H249.813C249.813 35.172 248.277 38.884 243.013 41.428L241.909 39.732C246.165 37.684 247.701 34.996 247.701 31.028V30.644ZM242.693 30.644H248.709V32.324H242.693V30.644Z" fill="#3EE187"/>
</g>
<defs>
<filter id="filter0_d_50_366" x="0" y="0" width="336" height="72" filterUnits="userSpaceOnUse" color-interpolation-filters="sRGB">
<feFlood flood-opacity="0" result="BackgroundImageFix"/>
<feColorMatrix in="SourceAlpha" type="matrix" values="0 0 0 0 0 0 0 0 0 0 0 0 0 0 0 0 0 0 127 0" result="hardAlpha"/>
<feOffset/>
<feGaussianBlur stdDeviation="4"/>
<feComposite in2="hardAlpha" operator="out"/>
<feColorMatrix type="matrix" values="0 0 0 0 0.243137 0 0 0 0 0.882353 0 0 0 0 0.529412 0 0 0 0.15 0"/>
<feBlend mode="normal" in2="BackgroundImageFix" result="effect1_dropShadow_50_366"/>
<feBlend mode="normal" in="SourceGraphic" in2="effect1_dropShadow_50_366" result="shape"/>
</filter>
<clipPath id="clip0_50_366">
<rect width="24" height="24" fill="white" transform="translate(80 24)"/>
</clipPath>
</defs>
</svg>
