<svg width="44" height="40" viewBox="0 0 44 40" fill="none" xmlns="http://www.w3.org/2000/svg">
<g id="South Korea (KR)" clip-path="url(#clip0_50_227)" filter="url(#filter0_d_50_227)">
<g id="Clip path group">
<mask id="mask0_50_227" style="mask-type:luminance" maskUnits="userSpaceOnUse" x="5" y="8" width="34" height="25">
<g id="a">
<path id="Vector" d="M5.99939 8.00122H38.001V32.0012H5.99939V8.00122Z" fill="white"/>
</g>
</mask>
<g mask="url(#mask0_50_227)">
<g id="Group">
<path id="Vector_2" fill-rule="evenodd" clip-rule="evenodd" d="M5.99939 8.00122H38.0056V32.0012H5.99939V8.00122Z" fill="white"/>
<g id="Group_2">
<g id="c">
<path id="b" fill-rule="evenodd" clip-rule="evenodd" d="M9.50598 15.2905L12.835 10.2988L13.667 10.8536L10.3379 15.8454L9.50598 15.2905ZM10.7539 16.1228L14.083 11.1311L14.9149 11.6859L11.5859 16.6776L10.7539 16.1228ZM12.0018 16.9551L15.3309 11.9633L16.1629 12.5182L12.8338 17.5099L12.0018 16.9551Z" fill="#000001"/>
<path id="b_2" fill-rule="evenodd" clip-rule="evenodd" d="M27.809 27.4971L31.138 22.5053L31.97 23.0602L28.6409 28.0519L27.809 27.4971ZM29.0569 28.3293L32.386 23.3376L33.2179 23.8925L29.8888 28.8842L29.0569 28.3293ZM30.3048 29.1616L33.6339 24.1699L34.4658 24.7247L31.1368 29.7164L30.3048 29.1616Z" fill="#000001"/>
</g>
<g id="Vector_3">
<path fill-rule="evenodd" clip-rule="evenodd" d="M29.0575 24.7239L33.2173 27.4981Z" fill="black"/>
<path d="M29.0575 24.7239L33.2173 27.4981" stroke="white" stroke-width="1.25"/>
</g>
<path id="Vector_4" fill-rule="evenodd" clip-rule="evenodd" d="M16.9941 16.6785C17.8771 15.3546 19.2497 14.4357 20.8102 14.1238C22.3706 13.812 23.991 14.1329 25.3149 15.0158C26.6388 15.8987 27.5577 17.2714 27.8696 18.8319C28.1814 20.3923 27.8605 22.0127 26.9776 23.3366L16.9941 16.6785Z" fill="#CD2E3A"/>
<path id="Vector_5" fill-rule="evenodd" clip-rule="evenodd" d="M16.9942 16.6787C16.1113 18.0026 15.7905 19.623 16.1023 21.1834C16.4141 22.7439 17.333 24.1166 18.6569 24.9995C19.9808 25.8824 21.6012 26.2033 23.1616 25.8914C24.7221 25.5796 26.0948 24.6607 26.9777 23.3368C27.4191 22.6749 27.5796 21.8647 27.4237 21.0844C27.2678 20.3042 26.8083 19.6179 26.1464 19.1764C25.4844 18.735 24.6742 18.5745 23.894 18.7304C23.1138 18.8863 22.4274 19.3458 21.986 20.0078L16.9942 16.6787Z" fill="#0047A0"/>
<path id="Vector_6" d="M21.9859 20.0075C22.9051 18.6291 22.5329 16.7664 21.1545 15.8471C19.7761 14.9278 17.9134 15.3 16.9941 16.6785C16.0748 18.0569 16.447 19.9196 17.8255 20.8389C19.2039 21.7581 21.0666 21.3859 21.9859 20.0075Z" fill="#CD2E3A"/>
</g>
<g id="Group_3">
<g id="c_2">
<path id="b_3" fill-rule="evenodd" clip-rule="evenodd" d="M12.8488 29.7185L9.51969 24.7268L10.3516 24.1719L13.6807 29.1637L12.8488 29.7185ZM14.0967 28.8862L10.7676 23.8945L11.5996 23.3397L14.9286 28.3314L14.0967 28.8862ZM15.3446 28.054L12.0156 23.0622L12.8475 22.5074L16.1766 27.4991L15.3446 28.054Z" fill="#000001"/>
<path id="b_4" fill-rule="evenodd" clip-rule="evenodd" d="M31.1517 17.512L27.8227 12.5202L28.6546 11.9654L31.9837 16.9571L31.1517 17.512ZM32.3997 16.6797L29.0706 11.688L29.9026 11.1331L33.2316 16.1249L32.3997 16.6797ZM33.6476 15.8474L30.3185 10.8557L31.1505 10.3009L34.4796 15.2926L33.6476 15.8474Z" fill="#000001"/>
</g>
<g id="Vector_7">
<path fill-rule="evenodd" clip-rule="evenodd" d="M12.2241 26.5291L13.4721 25.6968ZM29.0712 15.2934L30.5271 14.3225ZM31.775 13.4902L33.023 12.6579Z" fill="black"/>
<path d="M12.2241 26.5291L13.4721 25.6968M29.0712 15.2934L30.5271 14.3225M31.775 13.4902L33.023 12.6579" stroke="white" stroke-width="1.25"/>
</g>
</g>
</g>
</g>
</g>
</g>
<defs>
<filter id="filter0_d_50_227" x="-2" y="0" width="48" height="40" filterUnits="userSpaceOnUse" color-interpolation-filters="sRGB">
<feFlood flood-opacity="0" result="BackgroundImageFix"/>
<feColorMatrix in="SourceAlpha" type="matrix" values="0 0 0 0 0 0 0 0 0 0 0 0 0 0 0 0 0 0 127 0" result="hardAlpha"/>
<feOffset/>
<feGaussianBlur stdDeviation="4"/>
<feComposite in2="hardAlpha" operator="out"/>
<feColorMatrix type="matrix" values="0 0 0 0 0.458824 0 0 0 0 0.458824 0 0 0 0 0.458824 0 0 0 0.15 0"/>
<feBlend mode="normal" in2="BackgroundImageFix" result="effect1_dropShadow_50_227"/>
<feBlend mode="normal" in="SourceGraphic" in2="effect1_dropShadow_50_227" result="shape"/>
</filter>
<clipPath id="clip0_50_227">
<rect width="32" height="24" fill="white" transform="translate(6 8)"/>
</clipPath>
</defs>
</svg>
