<svg width="32" height="32" viewBox="0 0 32 32" fill="none" xmlns="http://www.w3.org/2000/svg">
<path d="M20.2803 19.2197L16.5303 15.4697C16.4608 15.3998 16.3782 15.3442 16.2872 15.3063C16.1962 15.2684 16.0986 15.2489 16 15.2489C15.9014 15.2489 15.8038 15.2684 15.7128 15.3063C15.6218 15.3442 15.5392 15.3998 15.4698 15.4697L5.5 25.4395L6.5605 26.5L16 17.0605L18.6895 19.75L14.5 23.9395L15.5605 25L17.2795 23.281L20.2803 20.2802C20.3501 20.2108 20.4056 20.1281 20.4434 20.0371C20.4813 19.9461 20.5008 19.8485 20.5008 19.75C20.5008 19.6514 20.4813 19.5539 20.4434 19.4629C20.4056 19.3719 20.3501 19.2892 20.2803 19.2197Z" fill="#41FA94"/>
<path d="M25.4395 10.75L21.25 14.9395L16.7493 10.438C16.6092 10.2983 16.4428 10.1876 16.2598 10.1125C16.0767 10.0373 15.8806 9.99907 15.6827 10C15.287 10.0011 14.9077 10.1585 14.6275 10.438L10 15.07L11.0605 16.1305L15.688 11.4993L20.7205 16.5303C20.79 16.6 20.8726 16.6554 20.9635 16.6932C21.0544 16.731 21.1519 16.7504 21.2504 16.7504C21.3488 16.7504 21.4463 16.731 21.5373 16.6932C21.6282 16.6554 21.7108 16.6 21.7803 16.5303L26.5 11.8105L25.4395 10.75Z" fill="#41FA94"/>
<path d="M20.875 10.75C19.4275 10.75 18.25 9.5725 18.25 8.125C18.25 6.6775 19.4275 5.5 20.875 5.5C22.3225 5.5 23.5 6.6775 23.5 8.125C23.5 9.5725 22.3225 10.75 20.875 10.75ZM20.875 7C20.2547 7 19.75 7.50475 19.75 8.125C19.75 8.74525 20.2547 9.25 20.875 9.25C21.4953 9.25 22 8.74525 22 8.125C22 7.50475 21.4953 7 20.875 7Z" fill="#41FA94"/>
<circle cx="20.5385" cy="8" r="2" fill="#41FA94"/>
</svg>
