<svg width="33" height="32" viewBox="0 0 33 32" fill="none" xmlns="http://www.w3.org/2000/svg">
<mask id="mask0_81_536" style="mask-type:alpha" maskUnits="userSpaceOnUse" x="0" y="0" width="33" height="32">
<rect x="0.538467" width="32" height="32" fill="#D9D9D9"/>
</mask>
<g mask="url(#mask0_81_536)">
<path d="M8.80013 23.3127C9.93347 22.4973 11.136 21.8526 12.4078 21.3783C13.6796 20.9039 15.0565 20.6667 16.5385 20.6667C18.0205 20.6667 19.3974 20.9039 20.6691 21.3783C21.9409 21.8526 23.1435 22.4973 24.2768 23.3127C25.1572 22.4016 25.8654 21.3256 26.4011 20.0847C26.9371 18.8436 27.2051 17.482 27.2051 16C27.2051 13.0444 26.1662 10.5278 24.0885 8.45C22.0107 6.37222 19.494 5.33333 16.5385 5.33333C13.5829 5.33333 11.0662 6.37222 8.98847 8.45C6.91069 10.5278 5.8718 13.0444 5.8718 16C5.8718 17.482 6.1398 18.8436 6.6758 20.0847C7.21158 21.3256 7.91969 22.4016 8.80013 23.3127ZM16.5391 16.6667C15.4156 16.6667 14.4679 16.281 13.6961 15.5097C12.9244 14.7383 12.5385 13.7909 12.5385 12.6673C12.5385 11.5438 12.9241 10.5961 13.6955 9.82433C14.4668 9.05255 15.4142 8.66667 16.5378 8.66667C17.6614 8.66667 18.609 9.05233 19.3808 9.82367C20.1526 10.595 20.5385 11.5424 20.5385 12.666C20.5385 13.7896 20.1528 14.7372 19.3815 15.509C18.6101 16.2808 17.6627 16.6667 16.5391 16.6667ZM16.5385 28C14.8649 28 13.2982 27.6884 11.8385 27.0653C10.3787 26.4422 9.10858 25.5906 8.02813 24.5103C6.94791 23.4299 6.09625 22.1598 5.47313 20.7C4.85002 19.2402 4.53847 17.6736 4.53847 16C4.53847 14.3264 4.85002 12.7598 5.47313 11.3C6.09625 9.84022 6.94791 8.57011 8.02813 7.48967C9.10858 6.40944 10.3787 5.55778 11.8385 4.93467C13.2982 4.31155 14.8649 4 16.5385 4C18.212 4 19.7787 4.31155 21.2385 4.93467C22.6982 5.55778 23.9684 6.40944 25.0488 7.48967C26.129 8.57011 26.9807 9.84022 27.6038 11.3C28.2269 12.7598 28.5385 14.3264 28.5385 16C28.5385 17.6736 28.2269 19.2402 27.6038 20.7C26.9807 22.1598 26.129 23.4299 25.0488 24.5103C23.9684 25.5906 22.6982 26.4422 21.2385 27.0653C19.7787 27.6884 18.212 28 16.5385 28ZM16.5385 26.6667C17.7676 26.6667 18.977 26.4517 20.1668 26.0217C21.3564 25.5919 22.3845 25.0034 23.2511 24.2563C22.3845 23.5606 21.3819 23.0106 20.2435 22.6063C19.105 22.2021 17.87 22 16.5385 22C15.2069 22 13.9676 22.1979 12.8205 22.5937C11.6736 22.9894 10.6754 23.5437 9.8258 24.2563C10.6925 25.0034 11.7206 25.5919 12.9101 26.0217C14.0999 26.4517 15.3094 26.6667 16.5385 26.6667ZM16.5385 15.3333C17.2871 15.3333 17.9188 15.0761 18.4335 14.5617C18.9479 14.047 19.2051 13.4153 19.2051 12.6667C19.2051 11.918 18.9479 11.2863 18.4335 10.7717C17.9188 10.2572 17.2871 10 16.5385 10C15.7898 10 15.1581 10.2572 14.6435 10.7717C14.129 11.2863 13.8718 11.918 13.8718 12.6667C13.8718 13.4153 14.129 14.047 14.6435 14.5617C15.1581 15.0761 15.7898 15.3333 16.5385 15.3333Z" fill="#BDBDBD"/>
</g>
</svg>
