<svg width="40" height="40" viewBox="0 0 40 40" fill="none" xmlns="http://www.w3.org/2000/svg">
<g filter="url(#filter0_d_106_610)">
<rect x="8" y="8" width="24" height="24" rx="12" fill="white"/>
<g clip-path="url(#clip0_106_610)">
<path d="M27.4969 17.2063C27.5969 17.4781 27.5126 17.7812 27.2969 17.975L25.9438 19.2063C25.9782 19.4656 25.9969 19.7312 25.9969 20C25.9969 20.2688 25.9782 20.5344 25.9438 20.7937L27.2969 22.025C27.5126 22.2187 27.5969 22.5219 27.4969 22.7937C27.3594 23.1656 27.1938 23.5219 27.0032 23.8656L26.8563 24.1187C26.6501 24.4625 26.4188 24.7875 26.1657 25.0938C25.9813 25.3187 25.6751 25.3937 25.4001 25.3062L23.6594 24.7531C23.2407 25.075 22.7782 25.3438 22.2844 25.5469L21.8938 27.3313C21.8313 27.6156 21.6126 27.8406 21.3251 27.8875C20.8938 27.9594 20.4501 27.9969 19.9969 27.9969C19.5438 27.9969 19.1001 27.9594 18.6688 27.8875C18.3813 27.8406 18.1626 27.6156 18.1001 27.3313L17.7094 25.5469C17.2157 25.3438 16.7532 25.075 16.3344 24.7531L14.5969 25.3094C14.3219 25.3969 14.0157 25.3188 13.8313 25.0969C13.5782 24.7906 13.3469 24.4656 13.1407 24.1219L12.9938 23.8687C12.8032 23.525 12.6376 23.1687 12.5001 22.7969C12.4001 22.525 12.4844 22.2219 12.7001 22.0281L14.0532 20.7969C14.0188 20.5344 14.0001 20.2688 14.0001 20C14.0001 19.7312 14.0188 19.4656 14.0532 19.2063L12.7001 17.975C12.4844 17.7812 12.4001 17.4781 12.5001 17.2063C12.6376 16.8344 12.8032 16.4781 12.9938 16.1344L13.1407 15.8812C13.3469 15.5375 13.5782 15.2125 13.8313 14.9062C14.0157 14.6813 14.3219 14.6062 14.5969 14.6937L16.3376 15.2469C16.7563 14.925 17.2188 14.6562 17.7126 14.4531L18.1032 12.6687C18.1657 12.3844 18.3844 12.1594 18.6719 12.1125C19.1032 12.0375 19.5469 12 20.0001 12C20.4532 12 20.8969 12.0375 21.3282 12.1094C21.6157 12.1562 21.8344 12.3812 21.8969 12.6656L22.2876 14.45C22.7813 14.6531 23.2438 14.9219 23.6626 15.2438L25.4032 14.6906C25.6782 14.6031 25.9844 14.6813 26.1688 14.9031C26.4219 15.2094 26.6532 15.5344 26.8594 15.8781L27.0063 16.1312C27.1969 16.475 27.3626 16.8313 27.5001 17.2031L27.4969 17.2063ZM20.0001 22.5C20.6631 22.5 21.299 22.2366 21.7678 21.7678C22.2367 21.2989 22.5001 20.663 22.5001 20C22.5001 19.337 22.2367 18.7011 21.7678 18.2322C21.299 17.7634 20.6631 17.5 20.0001 17.5C19.337 17.5 18.7011 17.7634 18.2323 18.2322C17.7634 18.7011 17.5001 19.337 17.5001 20C17.5001 20.663 17.7634 21.2989 18.2323 21.7678C18.7011 22.2366 19.337 22.5 20.0001 22.5Z" fill="#4F4F4F"/>
</g>
</g>
<defs>
<filter id="filter0_d_106_610" x="0" y="0" width="40" height="40" filterUnits="userSpaceOnUse" color-interpolation-filters="sRGB">
<feFlood flood-opacity="0" result="BackgroundImageFix"/>
<feColorMatrix in="SourceAlpha" type="matrix" values="0 0 0 0 0 0 0 0 0 0 0 0 0 0 0 0 0 0 127 0" result="hardAlpha"/>
<feOffset/>
<feGaussianBlur stdDeviation="4"/>
<feComposite in2="hardAlpha" operator="out"/>
<feColorMatrix type="matrix" values="0 0 0 0 0.458824 0 0 0 0 0.458824 0 0 0 0 0.458824 0 0 0 0.15 0"/>
<feBlend mode="normal" in2="BackgroundImageFix" result="effect1_dropShadow_106_610"/>
<feBlend mode="normal" in="SourceGraphic" in2="effect1_dropShadow_106_610" result="shape"/>
</filter>
<clipPath id="clip0_106_610">
<rect width="16" height="16" fill="white" transform="translate(12 12)"/>
</clipPath>
</defs>
</svg>
